<svg width="110" height="48" viewBox="0 0 110 48" fill="none" xmlns="http://www.w3.org/2000/svg">
<g clip-path="url(#clip0)">
<path d="M5.54267 42.0394C5.71671 42.1176 5.86536 42.2461 5.97086 42.4094C6.07637 42.5728 6.13427 42.7642 6.13767 42.9607V47.8128C6.13674 47.856 6.11954 47.897 6.08975 47.9272C6.05996 47.9574 6.01995 47.9743 5.97829 47.9743H4.82372C4.804 47.9753 4.78431 47.9718 4.76598 47.9642C4.74765 47.9566 4.73111 47.945 4.71747 47.9303C4.68958 47.898 4.67441 47.8561 4.67497 47.8128V43.4085H3.74351V47.8128C3.74388 47.855 3.72867 47.8957 3.70101 47.9266C3.6886 47.9432 3.67236 47.9562 3.65379 47.9646C3.63522 47.9729 3.61492 47.9762 3.59476 47.9743H2.53227C2.49094 47.9743 2.4513 47.9573 2.42208 47.927C2.39285 47.8967 2.37644 47.8556 2.37644 47.8128V43.4085H1.46269V47.8128C1.46775 47.8503 1.4583 47.8883 1.4364 47.9185C1.4145 47.9488 1.38194 47.9689 1.34582 47.9743H0.159366C0.12383 47.9798 0.0875997 47.9711 0.0580093 47.95C0.0284189 47.9289 0.00768012 47.8969 -8.05454e-06 47.8605V42.1202C-0.00506882 42.0827 0.00438316 42.0447 0.0262826 42.0145C0.0481821 41.9842 0.0807486 41.9642 0.116866 41.9587H5.16017C5.29186 41.956 5.42248 41.9836 5.54267 42.0394Z" fill="#F7F7F7"/>
<path d="M11.3333 41.9587C11.5258 41.9575 11.7143 42.0154 11.8751 42.1252C12.0358 42.2349 12.1616 42.3916 12.2365 42.5753C12.2901 42.6975 12.3179 42.8301 12.3179 42.9644V47.8165C12.3189 47.8373 12.3157 47.8582 12.3087 47.8777C12.3017 47.8973 12.2909 47.9152 12.2769 47.9303C12.263 47.9454 12.2463 47.9574 12.2278 47.9656C12.2093 47.9738 12.1893 47.978 12.1692 47.978H11.0075C10.9659 47.978 10.9258 47.9611 10.8961 47.9309C10.8663 47.9007 10.8491 47.8597 10.8481 47.8165V46.275C10.8498 46.2332 10.8359 46.1925 10.8092 46.1612C10.7956 46.145 10.7787 46.1323 10.7597 46.1241C10.7406 46.1158 10.72 46.1122 10.6994 46.1135H9.05607C9.0144 46.1135 8.97439 46.1304 8.9446 46.1605C8.91482 46.1907 8.89762 46.2318 8.89669 46.275V47.8165C8.89971 47.8348 8.89916 47.8536 8.89507 47.8717C8.89098 47.8899 8.88343 47.9069 8.87287 47.922C8.86231 47.937 8.84895 47.9497 8.83358 47.9594C8.8182 47.969 8.80113 47.9753 8.78336 47.978H7.59691C7.57895 47.9817 7.56046 47.9815 7.54256 47.9775C7.52466 47.9735 7.50774 47.9658 7.49282 47.9548C7.4779 47.9438 7.4653 47.9298 7.4558 47.9136C7.44629 47.8974 7.44008 47.8793 7.43753 47.8605V42.9644C7.43725 42.8309 7.46253 42.6986 7.51191 42.5753C7.55813 42.45 7.62933 42.3362 7.72086 42.2413C7.81425 42.1488 7.92358 42.0754 8.04315 42.0248C8.16137 41.9706 8.28933 41.9431 8.41857 41.944L11.3333 41.9587ZM10.834 44.8252V43.3094H8.88607V44.8215L10.834 44.8252Z" fill="#F7F7F7"/>
<path d="M17.5383 42.0061C17.5541 42.02 17.5665 42.0375 17.5745 42.0573C17.5825 42.0771 17.5859 42.0985 17.5843 42.1199V46.9794C17.5852 47.1133 17.5587 47.2459 17.5064 47.3684C17.4569 47.492 17.3861 47.6052 17.2975 47.7024C17.2079 47.798 17.099 47.8719 16.9787 47.919C16.8585 47.9701 16.7297 47.9963 16.5998 47.996H14.1206C13.9906 47.9963 13.8619 47.9701 13.7417 47.919C13.5635 47.8415 13.4117 47.7107 13.3057 47.5433C13.1997 47.3759 13.1443 47.1796 13.1467 46.9794V45.1442C13.1415 45.1063 13.1509 45.0679 13.1727 45.037C13.1946 45.0062 13.2271 44.9854 13.2635 44.9791H14.45C14.4864 44.9747 14.5231 44.9847 14.5526 45.0072C14.5822 45.0297 14.6025 45.0629 14.6094 45.1002V46.3738C14.6084 46.3948 14.6117 46.4157 14.619 46.4353C14.6263 46.4549 14.6375 46.4727 14.6519 46.4875C14.6833 46.5154 14.7238 46.5299 14.7652 46.5279H15.9694C16.0096 46.5297 16.049 46.5152 16.0791 46.4875C16.0947 46.4735 16.107 46.456 16.115 46.4362C16.123 46.4165 16.1264 46.3951 16.1252 46.3738V42.1199C16.1248 42.0778 16.14 42.037 16.1677 42.0061C16.1811 41.9898 16.198 41.9769 16.2171 41.9686C16.2361 41.9603 16.2568 41.9568 16.2775 41.9584H17.4321C17.452 41.9579 17.4719 41.9619 17.4902 41.9702C17.5086 41.9784 17.525 41.9907 17.5383 42.0061Z" fill="#F7F7F7"/>
<path d="M22.7906 41.9584C22.9198 41.9575 23.0478 41.985 23.166 42.0391C23.2818 42.0883 23.387 42.161 23.4752 42.2531C23.5634 42.3451 23.6329 42.4546 23.6795 42.575C23.7332 42.6972 23.7609 42.8298 23.761 42.964V46.961C23.7606 47.0963 23.7328 47.2301 23.6795 47.3537C23.6323 47.4766 23.5626 47.5888 23.4741 47.684C23.3832 47.7797 23.2732 47.8536 23.1518 47.9006C23.0335 47.9539 22.9054 47.9802 22.7764 47.9777H19.851C19.723 47.9777 19.5963 47.9502 19.4791 47.8969C19.3035 47.8221 19.1532 47.695 19.0473 47.5317C18.9414 47.3683 18.8846 47.1761 18.8841 46.9793V42.9824C18.8838 42.8477 18.9091 42.7143 18.9585 42.5897C19.0026 42.4652 19.0728 42.3524 19.1639 42.2594C19.2573 42.1669 19.3666 42.0934 19.4862 42.0428C19.6043 41.9884 19.7324 41.9608 19.8616 41.9621L22.7906 41.9584ZM22.2912 43.4265H20.3433V46.5242H22.3124L22.2912 43.4265Z" fill="#F7F7F7"/>
<path d="M30.1253 47.8419C30.1359 47.856 30.1417 47.8735 30.1417 47.8914C30.1417 47.9094 30.1359 47.9268 30.1253 47.941C30.1153 47.9552 30.1019 47.9665 30.0863 47.9736C30.0708 47.9807 30.0536 47.9834 30.0368 47.9813H28.7193C28.6728 47.9809 28.6274 47.9669 28.5882 47.941C28.546 47.9181 28.5106 47.8838 28.4855 47.8419L27.6249 46.2086C27.6193 46.1974 27.6105 46.1883 27.5997 46.1824C27.589 46.1765 27.5768 46.1741 27.5647 46.1756H26.5624C26.5577 46.1745 26.5529 46.1744 26.5482 46.1753C26.5435 46.1762 26.5391 46.1781 26.5351 46.1809C26.5311 46.1836 26.5278 46.1871 26.5251 46.1913C26.5225 46.1954 26.5207 46.2001 26.5199 46.2049V47.8052C26.5224 47.8238 26.5212 47.8427 26.5164 47.8609C26.5116 47.879 26.5034 47.8959 26.4921 47.9107C26.4809 47.9254 26.4669 47.9376 26.451 47.9466C26.435 47.9556 26.4175 47.9612 26.3995 47.963H25.2201C25.1845 47.9683 25.1483 47.959 25.1192 47.9371C25.0901 47.9151 25.0704 47.8823 25.0643 47.8455C25.0607 47.8311 25.0607 47.8159 25.0643 47.8015V42.1199C25.0613 42.1016 25.0618 42.0828 25.0659 42.0647C25.07 42.0465 25.0775 42.0294 25.0881 42.0144C25.0987 41.9993 25.112 41.9866 25.1274 41.977C25.1428 41.9674 25.1598 41.9611 25.1776 41.9584H28.9743C29.1035 41.9579 29.2313 41.9854 29.3497 42.0391C29.5807 42.1431 29.7645 42.3349 29.8632 42.575C29.9154 42.6975 29.942 42.8301 29.9411 42.9641V45.225C29.9424 45.4379 29.8765 45.6454 29.7534 45.8159C29.638 45.9901 29.4697 46.1193 29.2753 46.1829H29.2505C29.2116 46.1829 29.2009 46.2123 29.2222 46.2343L30.1253 47.8419ZM28.4749 43.3605H26.4739V44.8286H28.4749V43.3605Z" fill="#F7F7F7"/>
<path d="M37.9382 46.5169C37.9585 46.5154 37.9789 46.5186 37.9978 46.5262C38.0168 46.5338 38.0339 46.5457 38.048 46.561C38.0759 46.5932 38.091 46.6351 38.0905 46.6784V47.8162C38.0908 47.8584 38.0756 47.8991 38.048 47.93C38.0346 47.9464 38.0177 47.9592 37.9986 47.9675C37.9795 47.9758 37.9588 47.9793 37.9382 47.9777H34.354C34.318 47.9831 34.2813 47.9739 34.2517 47.952C34.222 47.9302 34.2016 47.8973 34.1947 47.8602V42.1199C34.1896 42.0825 34.1991 42.0444 34.221 42.0142C34.2429 41.9839 34.2754 41.9639 34.3115 41.9584H35.498C35.5341 41.9532 35.5708 41.963 35.6 41.9857C35.6292 42.0084 35.6486 42.0421 35.6538 42.0795C35.6575 42.0927 35.6575 42.1067 35.6538 42.1199V46.3628C35.6531 46.3841 35.6568 46.4053 35.6647 46.4249C35.6727 46.4446 35.6847 46.4622 35.6999 46.4765C35.731 46.5054 35.7714 46.5212 35.8132 46.5206L37.9382 46.5169Z" fill="#F7F7F7"/>
<path d="M43.3073 42.0061C43.3225 42.0205 43.3345 42.0381 43.3424 42.0577C43.3504 42.0774 43.3541 42.0986 43.3534 42.1199V43.2026C43.3549 43.224 43.3515 43.2455 43.3435 43.2652C43.3355 43.285 43.3231 43.3025 43.3073 43.3164C43.2775 43.3451 43.2382 43.3608 43.1975 43.3604H40.4138C40.4093 43.3594 40.4047 43.3593 40.4003 43.3602C40.3958 43.3612 40.3915 43.3631 40.3879 43.3659C40.3842 43.3687 40.3811 43.3723 40.3788 43.3764C40.3766 43.3805 40.3752 43.3851 40.3748 43.3898V44.3257C40.3748 44.3477 40.3748 44.3588 40.4138 44.3588H42.7867C42.8068 44.3577 42.8268 44.3615 42.8452 44.3698C42.8636 44.3781 42.88 44.3906 42.893 44.4065C42.9206 44.4374 42.9358 44.4781 42.9355 44.5203V45.3828C42.9358 45.4249 42.9206 45.4656 42.893 45.4965C42.88 45.5124 42.8636 45.525 42.8452 45.5332C42.8268 45.5415 42.8068 45.5453 42.7867 45.5443H40.4138C40.4049 45.5432 40.396 45.5456 40.3888 45.551C40.3815 45.5565 40.3766 45.5645 40.3748 45.5736V46.5022C40.3732 46.5068 40.3726 46.5117 40.373 46.5165C40.3734 46.5214 40.3748 46.5261 40.3772 46.5303C40.3796 46.5345 40.3828 46.5381 40.3867 46.5409C40.3906 46.5436 40.395 46.5455 40.3996 46.5463H43.2082C43.2489 46.5462 43.288 46.5628 43.3171 46.5922C43.3462 46.6217 43.3631 46.6619 43.364 46.7041V47.8052C43.3645 47.8262 43.3609 47.8471 43.3534 47.8667C43.346 47.8863 43.3349 47.9041 43.3207 47.9191C43.3065 47.9342 43.2895 47.9461 43.2708 47.9543C43.2521 47.9625 43.232 47.9667 43.2117 47.9667H39.0715C39.0355 47.9721 38.9988 47.9629 38.9691 47.941C38.9395 47.9191 38.919 47.8863 38.9121 47.8492V42.1199C38.9131 42.0767 38.9303 42.0356 38.9601 42.0055C38.9898 41.9753 39.0299 41.9584 39.0715 41.9584H43.2082C43.2459 41.9607 43.2813 41.9777 43.3073 42.0061Z" fill="#F7F7F7"/>
<path d="M48.5737 41.9587C48.7042 41.9575 48.8333 41.985 48.9527 42.0395C49.1863 42.1388 49.3723 42.3302 49.4698 42.5716C49.5223 42.6941 49.5489 42.8267 49.5477 42.9607V47.8128C49.5487 47.8337 49.5455 47.8545 49.5385 47.8741C49.5314 47.8936 49.5206 47.9115 49.5067 47.9266C49.4928 47.9417 49.4761 47.9537 49.4576 47.9619C49.439 47.9701 49.4191 47.9743 49.3989 47.9743H48.2267C48.1853 47.9743 48.1457 47.9573 48.1165 47.927C48.0872 47.8967 48.0708 47.8556 48.0708 47.8128V46.2713C48.0712 46.2291 48.056 46.1884 48.0283 46.1575C48.015 46.1411 47.998 46.1283 47.979 46.12C47.9599 46.1117 47.9392 46.1082 47.9185 46.1098H46.3C46.2583 46.1098 46.2183 46.1267 46.1885 46.1569C46.1588 46.1871 46.1416 46.2281 46.1406 46.2713V47.8128C46.1457 47.8503 46.1362 47.8883 46.1143 47.9185C46.0924 47.9488 46.0599 47.9689 46.0238 47.9743H44.8373C44.8196 47.9774 44.8015 47.9769 44.784 47.9726C44.7665 47.9684 44.75 47.9606 44.7355 47.9496C44.721 47.9387 44.7087 47.9248 44.6994 47.9089C44.6902 47.893 44.6841 47.8753 44.6815 47.8569C44.6779 47.8424 44.6779 47.8273 44.6815 47.8128V42.9644C44.6812 42.8309 44.7065 42.6986 44.7558 42.5753C44.8021 42.45 44.8733 42.3362 44.9648 42.2413C45.0582 42.1488 45.1675 42.0754 45.2871 42.0248C45.4052 41.9703 45.5332 41.9428 45.6625 41.944L48.5737 41.9587ZM48.0779 44.8252V43.3094H46.1265V44.8215L48.0779 44.8252Z" fill="#F7F7F7"/>
<path d="M55.6747 44.7402C55.6896 44.7555 55.701 44.7739 55.7084 44.7942C55.7157 44.8144 55.7187 44.8361 55.7172 44.8577V46.9791C55.7181 47.113 55.6916 47.2456 55.6393 47.3682C55.5895 47.4907 55.5201 47.6036 55.4339 47.7022C55.3424 47.797 55.2326 47.8708 55.1116 47.9187C54.9926 47.9696 54.865 47.9958 54.7362 47.9958H51.7967C51.6691 47.9963 51.5427 47.9706 51.4247 47.9202C51.3068 47.8698 51.1996 47.7958 51.1094 47.7023C51.0192 47.6088 50.9478 47.4978 50.8992 47.3755C50.8506 47.2533 50.8258 47.1223 50.8262 46.9901V42.9895C50.8262 42.856 50.8515 42.7239 50.9006 42.6005C50.9442 42.4746 51.0144 42.3605 51.106 42.2665C51.1988 42.175 51.3068 42.1016 51.4248 42.0499C51.5448 41.9976 51.6735 41.9701 51.8037 41.9692H55.2498C55.292 41.9692 55.3326 41.9866 55.3624 42.0175C55.3923 42.0485 55.4091 42.0905 55.4091 42.1343V43.2685C55.4091 43.3123 55.3923 43.3543 55.3624 43.3852C55.3326 43.4162 55.292 43.4336 55.2498 43.4336H52.4696C52.4278 43.433 52.3873 43.4488 52.3562 43.4777C52.327 43.5078 52.3104 43.5487 52.3102 43.5914V46.3772C52.3104 46.3978 52.3145 46.4182 52.3224 46.4371C52.3304 46.456 52.3418 46.4731 52.3562 46.4873C52.3712 46.5023 52.389 46.5139 52.4085 46.5215C52.428 46.5291 52.4488 46.5324 52.4696 46.5313H54.1129C54.1315 46.5323 54.1501 46.5295 54.1677 46.523C54.1852 46.5165 54.2014 46.5065 54.2152 46.4936C54.229 46.4806 54.2402 46.465 54.2482 46.4475C54.2562 46.4301 54.2607 46.4112 54.2616 46.3919V44.8724C54.2607 44.8515 54.2638 44.8307 54.2709 44.8111C54.2779 44.7916 54.2887 44.7737 54.3026 44.7586C54.3165 44.7435 54.3332 44.7315 54.3518 44.7233C54.3703 44.7151 54.3902 44.7108 54.4104 44.7109H55.572C55.6086 44.7075 55.645 44.718 55.6747 44.7402Z" fill="#F7F7F7"/>
<path d="M61.7983 42.0062C61.8275 42.0363 61.8441 42.0772 61.8443 42.1199V46.9794C61.8439 47.1136 61.8162 47.2462 61.7628 47.3684C61.7144 47.4917 61.6448 47.6049 61.5574 47.7024C61.4659 47.7973 61.356 47.8711 61.2351 47.919C61.1149 47.9702 60.9861 47.9964 60.8562 47.9961H57.9166C57.7878 47.9961 57.6603 47.9699 57.5412 47.919C57.3069 47.8175 57.1201 47.6253 57.0206 47.3831C56.9712 47.2585 56.9459 47.1251 56.9462 46.9904V42.1199C56.9411 42.0825 56.9506 42.0445 56.9725 42.0142C56.9944 41.9839 57.0269 41.9639 57.0631 41.9584H58.2495C58.2857 41.9532 58.3223 41.963 58.3515 41.9857C58.3807 42.0084 58.4001 42.0421 58.4054 42.0796C58.409 42.0928 58.409 42.1067 58.4054 42.1199V46.3628C58.4046 46.3841 58.4083 46.4053 58.4163 46.4249C58.4242 46.4446 58.4362 46.4622 58.4514 46.4766C58.4825 46.5055 58.523 46.5212 58.5647 46.5206H60.208C60.2277 46.5209 60.2472 46.5172 60.2654 46.5096C60.2837 46.502 60.3003 46.4908 60.3143 46.4766C60.3295 46.4623 60.3412 46.4447 60.3486 46.4249C60.356 46.4051 60.3588 46.3839 60.3568 46.3628V42.1199C60.3577 42.0768 60.3749 42.0357 60.4047 42.0055C60.4345 41.9753 60.4745 41.9584 60.5162 41.9584H61.6708C61.6942 41.9544 61.7182 41.9566 61.7405 41.965C61.7629 41.9733 61.7827 41.9875 61.7983 42.0062Z" fill="#F7F7F7"/>
<path d="M67.5499 42.0061C67.5792 42.0362 67.5957 42.0771 67.5959 42.1199V43.2026C67.5967 43.2239 67.593 43.2451 67.585 43.2648C67.5771 43.2844 67.5651 43.302 67.5499 43.3164C67.5188 43.3453 67.4783 43.361 67.4366 43.3604H64.6564C64.6517 43.3594 64.6469 43.3593 64.6422 43.3602C64.6375 43.3611 64.633 43.363 64.6291 43.3657C64.6251 43.3685 64.6217 43.372 64.6191 43.3762C64.6165 43.3803 64.6147 43.3849 64.6139 43.3898V44.3404C64.6139 44.3624 64.6139 44.3734 64.6564 44.3734H67.0293C67.0493 44.373 67.0691 44.377 67.0874 44.3852C67.1058 44.3934 67.1222 44.4057 67.1355 44.4212C67.1632 44.4521 67.1784 44.4928 67.178 44.5349V45.3975C67.1784 45.4396 67.1632 45.4803 67.1355 45.5112C67.1222 45.5267 67.1058 45.5389 67.0874 45.5472C67.0691 45.5554 67.0493 45.5594 67.0293 45.5589H64.6564C64.6471 45.5577 64.6376 45.56 64.6298 45.5654C64.622 45.5708 64.6163 45.5789 64.6139 45.5883V46.5316C64.6128 46.5364 64.6128 46.5414 64.6136 46.5463C64.6145 46.5511 64.6163 46.5557 64.619 46.5598C64.6216 46.564 64.625 46.5675 64.629 46.5702C64.633 46.5729 64.6375 46.5747 64.6422 46.5756H67.4366C67.4776 46.5756 67.5171 46.592 67.5468 46.6214C67.5765 46.6508 67.5941 46.6909 67.5959 46.7334V47.8345C67.5959 47.8767 67.58 47.9173 67.5515 47.9474C67.5231 47.9776 67.4843 47.9951 67.4436 47.996H63.3141C63.2962 47.9992 63.2778 47.9986 63.2601 47.9944C63.2424 47.9902 63.2257 47.9825 63.2109 47.9716C63.1961 47.9606 63.1835 47.9468 63.1739 47.9309C63.1642 47.9149 63.1577 47.8971 63.1547 47.8786C63.1511 47.8641 63.1511 47.849 63.1547 47.8345V42.1199C63.1556 42.0767 63.1728 42.0357 63.2026 42.0055C63.2324 41.9753 63.2724 41.9584 63.3141 41.9584H67.4366C67.4576 41.9576 67.4786 41.9614 67.4982 41.9696C67.5177 41.9779 67.5353 41.9903 67.5499 42.0061Z" fill="#F7F7F7"/>
<path d="M76.4572 41.9585C76.4773 41.9575 76.4974 41.9607 76.5163 41.968C76.5351 41.9753 76.5524 41.9865 76.5669 42.0009C76.5815 42.0154 76.5931 42.0327 76.601 42.0519C76.6089 42.0711 76.613 42.0917 76.613 42.1126V47.8162C76.6135 47.8373 76.6099 47.8582 76.6024 47.8778C76.595 47.8973 76.5838 47.9152 76.5697 47.9302C76.5555 47.9453 76.5385 47.9572 76.5198 47.9654C76.5011 47.9735 76.481 47.9777 76.4607 47.9777H75.3026C75.2609 47.9777 75.2209 47.9608 75.1911 47.9307C75.1613 47.9005 75.1441 47.8594 75.1432 47.8162V45.8159C75.1442 45.7967 75.1414 45.7774 75.1352 45.7592C75.1289 45.741 75.1193 45.7242 75.1068 45.7099C75.0943 45.6956 75.0792 45.684 75.0623 45.6757C75.0455 45.6675 75.0272 45.6627 75.0086 45.6618H73.3547C73.3128 45.6605 73.2721 45.6763 73.2413 45.7058C73.2255 45.7197 73.2131 45.7372 73.2051 45.757C73.1971 45.7768 73.1937 45.7982 73.1953 45.8196V47.8199C73.2004 47.8574 73.1909 47.8954 73.169 47.9256C73.1471 47.9559 73.1145 47.9759 73.0784 47.9814C73.0657 47.985 73.0522 47.985 73.0395 47.9814H71.8955C71.8594 47.9866 71.8227 47.9769 71.7935 47.9542C71.7643 47.9315 71.7449 47.8977 71.7397 47.8603C71.736 47.8471 71.736 47.8331 71.7397 47.8199V42.12C71.7346 42.0825 71.7441 42.0445 71.766 42.0142C71.7879 41.984 71.8204 41.9639 71.8565 41.9585H73.043C73.0791 41.9532 73.1158 41.963 73.145 41.9857C73.1742 42.0084 73.1936 42.0422 73.1988 42.0796C73.2025 42.0928 73.2025 42.1068 73.1988 42.12V44.0432C73.1938 44.0807 73.2032 44.1187 73.2251 44.1489C73.247 44.1792 73.2796 44.1992 73.3157 44.2047H74.998C75.0183 44.2062 75.0387 44.203 75.0576 44.1954C75.0766 44.1878 75.0937 44.1759 75.1078 44.1606C75.1357 44.1284 75.1508 44.0865 75.1503 44.0432V42.1163C75.1512 42.0731 75.1684 42.0321 75.1982 42.0019C75.228 41.9717 75.268 41.9548 75.3097 41.9548H76.4607L76.4572 41.9585Z" fill="#F7F7F7"/>
<path d="M81.8333 41.9587C81.9637 41.9575 82.0929 41.985 82.2123 42.0394C82.4459 42.1388 82.6319 42.3302 82.7294 42.5716C82.7819 42.694 82.8085 42.8267 82.8073 42.9607V47.8128C82.8082 47.8337 82.8051 47.8545 82.7981 47.8741C82.791 47.8936 82.7802 47.9115 82.7663 47.9266C82.7524 47.9417 82.7357 47.9537 82.7171 47.9619C82.6986 47.9701 82.6787 47.9743 82.6585 47.9743H81.4969C81.4555 47.9743 81.4159 47.9573 81.3867 47.927C81.3575 47.8967 81.341 47.8556 81.341 47.8128V46.2713C81.3414 46.2291 81.3262 46.1884 81.2985 46.1575C81.2852 46.1411 81.2683 46.1283 81.2492 46.12C81.2301 46.1117 81.2094 46.1082 81.1887 46.1098H79.5419C79.5005 46.1098 79.4609 46.1268 79.4317 46.1571C79.4025 46.1874 79.386 46.2285 79.386 46.2713V47.8128C79.3911 47.8503 79.3817 47.8883 79.3598 47.9185C79.3379 47.9488 79.3053 47.9688 79.2692 47.9743H78.0827C78.0648 47.9775 78.0465 47.9769 78.0288 47.9727C78.0111 47.9685 77.9943 47.9607 77.9795 47.9498C77.9647 47.9389 77.9521 47.9251 77.9425 47.9091C77.9329 47.8932 77.9263 47.8754 77.9233 47.8568V42.9644C77.9231 42.8309 77.9483 42.6986 77.9977 42.5753C78.0439 42.45 78.1151 42.3362 78.2067 42.2413C78.3005 42.1494 78.4097 42.0761 78.529 42.0248C78.6473 41.9711 78.7752 41.9436 78.9044 41.944L81.8333 41.9587ZM81.3375 44.8252V43.3094H79.386V44.8215L81.3375 44.8252Z" fill="#F7F7F7"/>
<path d="M85.5946 43.4635C85.5798 43.478 85.5684 43.4957 85.561 43.5154C85.5537 43.5351 85.5506 43.5562 85.5521 43.5772V46.363C85.5506 46.384 85.5537 46.4051 85.561 46.4248C85.5684 46.4445 85.5798 46.4622 85.5946 46.4768C85.6257 46.5057 85.6661 46.5214 85.7079 46.5208H88.3748C88.3949 46.5198 88.415 46.5231 88.4339 46.5304C88.4527 46.5377 88.47 46.5489 88.4845 46.5633C88.4991 46.5777 88.5107 46.595 88.5186 46.6142C88.5265 46.6334 88.5306 46.6541 88.5306 46.675V47.8201C88.5315 47.8409 88.5284 47.8618 88.5214 47.8813C88.5143 47.9009 88.5035 47.9188 88.4896 47.9339C88.4757 47.949 88.459 47.961 88.4404 47.9692C88.4219 47.9774 88.402 47.9816 88.3818 47.9816H85.0633C84.9345 47.9823 84.8068 47.956 84.6879 47.9045C84.567 47.8566 84.4572 47.7828 84.3656 47.6879C84.1856 47.4891 84.0856 47.2266 84.0858 46.9539V42.968C84.0852 42.8344 84.1105 42.7021 84.1602 42.5789C84.2038 42.4531 84.274 42.339 84.3656 42.2449C84.459 42.1524 84.5683 42.079 84.6879 42.0284C84.806 41.9739 84.934 41.9464 85.0633 41.9476H88.3748C88.4155 41.9476 88.4546 41.9641 88.4837 41.9936C88.5128 42.0231 88.5297 42.0633 88.5306 42.1054V43.2469C88.5316 43.2891 88.5165 43.3301 88.4887 43.3609C88.4609 43.3918 88.4225 43.4102 88.3818 43.4121H85.7079C85.6867 43.4124 85.6657 43.4171 85.6462 43.4259C85.6268 43.4347 85.6092 43.4475 85.5946 43.4635Z" fill="#F7F7F7"/>
<path d="M93.1454 44.4946C93.1384 44.5027 93.1345 44.5131 93.1345 44.524C93.1345 44.5348 93.1384 44.5453 93.1454 44.5533L95.072 47.8566C95.0826 47.8708 95.0884 47.8882 95.0884 47.9061C95.0884 47.9241 95.0826 47.9415 95.072 47.9557C95.0621 47.97 95.0486 47.9812 95.033 47.9883C95.0175 47.9954 95.0004 47.9981 94.9835 47.9961H93.6022C93.5558 47.9956 93.5104 47.9816 93.4712 47.9557C93.4293 47.9337 93.3947 47.8992 93.372 47.8566L92.1289 45.5113C92.1289 45.4782 92.097 45.4782 92.0864 45.5113L91.3993 46.293C91.3671 46.3287 91.3429 46.3713 91.3285 46.4178C91.3103 46.4645 91.3007 46.5143 91.3002 46.5646V47.8382C91.3044 47.876 91.2947 47.914 91.273 47.9446C91.2513 47.9752 91.2193 47.9962 91.1833 48.0034H90.0216C89.9855 48.0086 89.9488 47.9989 89.9196 47.9762C89.8904 47.9535 89.8711 47.9197 89.8658 47.8823C89.8622 47.8678 89.8622 47.8527 89.8658 47.8382V42.1199C89.8607 42.0825 89.8702 42.0445 89.8921 42.0142C89.914 41.9839 89.9466 41.9639 89.9827 41.9584H91.1691C91.2053 41.9532 91.2419 41.963 91.2711 41.9857C91.3003 42.0084 91.3197 42.0421 91.3249 42.0795C91.3286 42.0927 91.3286 42.1067 91.3249 42.1199V44.6891L93.4676 42.0906C93.492 42.0518 93.5233 42.0182 93.5597 41.9915C93.604 41.9697 93.6524 41.9584 93.7014 41.9584H95.0791C95.1251 41.9584 95.1499 41.9584 95.1606 41.9915C95.1712 42.0245 95.1606 42.0465 95.1322 42.0795L93.1454 44.4946Z" fill="#F7F7F7"/>
<path d="M97.6255 47.8162C97.6286 47.8346 97.628 47.8533 97.6239 47.8715C97.6198 47.8896 97.6123 47.9067 97.6017 47.9217C97.5912 47.9368 97.5778 47.9495 97.5624 47.9591C97.5471 47.9687 97.53 47.975 97.5122 47.9777H96.3328C96.3149 47.9809 96.2966 47.9803 96.2789 47.9761C96.2612 47.9719 96.2444 47.9642 96.2296 47.9532C96.2148 47.9423 96.2022 47.9285 96.1926 47.9125C96.183 47.8966 96.1765 47.8788 96.1735 47.8603V42.1199C96.1684 42.0825 96.1779 42.0445 96.1998 42.0142C96.2216 41.9839 96.2542 41.9639 96.2903 41.9584H97.4768C97.5129 41.9532 97.5496 41.963 97.5788 41.9857C97.608 42.0084 97.6274 42.0421 97.6326 42.0795C97.6363 42.0927 97.6363 42.1067 97.6326 42.1199L97.6255 47.8162Z" fill="#F7F7F7"/>
<path d="M103.204 42.0391C103.436 42.1408 103.621 42.3315 103.721 42.5713C103.772 42.6941 103.797 42.8267 103.795 42.9604V47.8125C103.796 47.8334 103.793 47.8542 103.786 47.8738C103.779 47.8933 103.768 47.9112 103.754 47.9263C103.74 47.9414 103.723 47.9534 103.705 47.9616C103.686 47.9698 103.666 47.974 103.646 47.974H102.499C102.479 47.9755 102.458 47.9723 102.439 47.9647C102.42 47.9571 102.403 47.9452 102.389 47.93C102.361 47.8977 102.346 47.8558 102.347 47.8125V43.5733C102.348 43.5519 102.345 43.5305 102.337 43.5107C102.329 43.4909 102.316 43.4734 102.301 43.4595C102.271 43.4309 102.231 43.4151 102.191 43.4155H100.547C100.506 43.4149 100.465 43.4306 100.434 43.4595C100.419 43.4739 100.407 43.4915 100.399 43.5112C100.391 43.5308 100.387 43.552 100.388 43.5733V47.8162C100.393 47.8536 100.384 47.8916 100.362 47.9219C100.34 47.9522 100.307 47.9722 100.271 47.9777H99.0847C99.0491 47.983 99.0129 47.9737 98.9838 47.9518C98.9547 47.9298 98.935 47.897 98.9289 47.8602C98.9253 47.8458 98.9253 47.8306 98.9289 47.8162V42.1199C98.9238 42.0824 98.9333 42.0444 98.9552 42.0142C98.9771 41.9839 99.0096 41.9639 99.0458 41.9584H102.839C102.965 41.9576 103.089 41.9851 103.204 42.0391Z" fill="#F7F7F7"/>
<path d="M109.936 44.7407C109.952 44.7558 109.964 44.7741 109.972 44.7943C109.979 44.8146 109.983 44.8363 109.982 44.8582V46.9796C109.982 47.1138 109.954 47.2464 109.901 47.3686C109.854 47.4926 109.784 47.606 109.696 47.7026C109.605 47.7983 109.495 47.8722 109.373 47.9192C109.254 47.9707 109.127 47.9969 108.998 47.9963H106.058C105.929 47.9963 105.802 47.9701 105.683 47.9192C105.507 47.8395 105.358 47.7077 105.255 47.5405C105.152 47.3733 105.098 47.1781 105.102 46.9796V42.9826C105.103 42.8423 105.132 42.7036 105.187 42.5752C105.231 42.4508 105.301 42.338 105.392 42.2449C105.486 42.1524 105.595 42.079 105.715 42.0284C105.833 41.9739 105.961 41.9464 106.09 41.9476H109.518C109.56 41.9476 109.599 41.9646 109.629 41.9949C109.658 42.0252 109.674 42.0663 109.674 42.1091V43.2469C109.674 43.2897 109.658 43.3308 109.629 43.3611C109.599 43.3914 109.56 43.4084 109.518 43.4084H106.735C106.694 43.408 106.655 43.4238 106.625 43.4524C106.609 43.4663 106.597 43.4838 106.589 43.5036C106.581 43.5234 106.577 43.5448 106.579 43.5662V46.352C106.577 46.3734 106.581 46.3948 106.589 46.4146C106.597 46.4344 106.609 46.4519 106.625 46.4657C106.639 46.4802 106.657 46.4912 106.676 46.4982C106.695 46.5051 106.715 46.5078 106.735 46.5061H108.36C108.379 46.5071 108.398 46.5043 108.415 46.4978C108.433 46.4913 108.449 46.4813 108.463 46.4684C108.476 46.4554 108.488 46.4398 108.496 46.4223C108.504 46.4049 108.508 46.3859 108.509 46.3667V44.8472C108.508 44.8263 108.511 44.8055 108.518 44.7859C108.525 44.7663 108.536 44.7485 108.55 44.7334C108.564 44.7183 108.581 44.7063 108.599 44.6981C108.618 44.6899 108.638 44.6856 108.658 44.6857H109.819C109.842 44.6855 109.864 44.6903 109.884 44.6998C109.904 44.7093 109.922 44.7233 109.936 44.7407Z" fill="#F7F7F7"/>
<path d="M35.0082 0.518282C36.4672 1.16267 37.6286 2.3676 38.2488 3.88026C38.5783 4.65253 38.7484 5.48763 38.7482 6.33202V37.9185C38.7501 38.1885 38.6487 38.4482 38.4661 38.6409C38.2836 38.8335 38.0348 38.9433 37.7743 38.9462H30.4572C30.3294 38.9515 30.2021 38.9273 30.0844 38.8752C29.9668 38.8232 29.8619 38.7446 29.7772 38.6452C29.6005 38.4455 29.5064 38.182 29.5151 37.9112V9.22053H23.6537V37.9295C23.6606 38.2 23.5667 38.4628 23.3916 38.6636C23.3052 38.7616 23.1995 38.8393 23.0815 38.8912C22.9636 38.9432 22.8362 38.9682 22.7081 38.9645H16.1029C15.9736 38.9665 15.8452 38.942 15.7251 38.8925C15.6049 38.843 15.4953 38.7695 15.4025 38.6761C15.3098 38.5827 15.2357 38.4713 15.1845 38.3482C15.1333 38.2252 15.106 38.0929 15.1042 37.9589V9.22053H9.23213V37.9295C9.2511 38.0699 9.23831 38.2129 9.19476 38.3472C9.15122 38.4816 9.07813 38.6036 8.98125 38.7036C8.88438 38.8036 8.76638 38.879 8.63659 38.9236C8.50679 38.9683 8.36876 38.981 8.23339 38.9609H0.997805C0.862437 38.981 0.724402 38.9683 0.594607 38.9236C0.464812 38.879 0.346816 38.8036 0.249942 38.7036C0.153068 38.6036 0.0799725 38.4816 0.0364309 38.3472C-0.00711061 38.2129 -0.0199045 38.0699 -0.000939653 37.9295V1.03212C-0.0199045 0.891767 -0.00711061 0.748764 0.0364309 0.614414C0.0799725 0.480065 0.153068 0.358051 0.249942 0.258014C0.346816 0.157978 0.464812 0.0826611 0.594607 0.0380156C0.724402 -0.00662985 0.862437 -0.0193803 0.997805 0.0007718H32.6212C33.4432 -0.00306353 34.2567 0.173298 35.0082 0.518282Z" fill="#E73427"/>
<path d="M70.5461 29.5018C70.6781 29.4989 70.8092 29.5245 70.9311 29.577C71.053 29.6294 71.1631 29.7075 71.2544 29.8064C71.4383 30.0098 71.5375 30.2801 71.5306 30.5588V37.8994C71.5352 38.1722 71.4359 38.4358 71.2544 38.6334C71.1637 38.7333 71.0538 38.8124 70.9318 38.8655C70.8098 38.9186 70.6784 38.9446 70.5461 38.9417H45.5774C44.8691 38.9417 44.515 38.5747 44.515 37.8847V1.05704C44.515 0.352347 44.8691 0 45.5774 0H53.2416C53.9499 0 54.3041 0.367029 54.3041 1.05704V28.4998C54.3 28.6395 54.327 28.7784 54.3829 28.9056C54.4387 29.0329 54.522 29.1452 54.6264 29.2338C54.8324 29.4218 55.0992 29.5227 55.3736 29.5164L70.5461 29.5018Z" fill="#1D539F"/>
<path d="M108.92 8.14348e-06C109.06 -0.00399992 109.199 0.0212347 109.329 0.0742052C109.459 0.127176 109.578 0.206796 109.678 0.308312C109.779 0.403363 109.86 0.51945 109.916 0.64906C109.971 0.778669 110 0.918915 110 1.06072V38.0132C110 38.155 109.971 38.2952 109.916 38.4248C109.86 38.5544 109.779 38.6705 109.678 38.7656C109.578 38.8671 109.459 38.9467 109.329 38.9997C109.199 39.0526 109.06 39.0779 108.92 39.0739H101.156C101.017 39.0776 100.879 39.0522 100.749 38.9992C100.619 38.9463 100.501 38.8668 100.402 38.7656C100.299 38.6716 100.217 38.5557 100.162 38.4258C100.106 38.296 100.078 38.1552 100.08 38.0132V25.1194C100.086 24.9836 100.064 24.8479 100.016 24.7214C99.9674 24.5949 99.894 24.4804 99.8 24.3854C99.703 24.2912 99.5888 24.2179 99.4642 24.17C99.3395 24.1221 99.2068 24.1005 99.074 24.1064H88.187C87.9106 24.0973 87.641 24.197 87.4326 24.3854C87.3285 24.4742 87.2453 24.5865 87.1895 24.7138C87.1336 24.841 87.1066 24.9797 87.1103 25.1194V38.0132C87.1103 38.7179 86.7562 39.0739 86.0478 39.0739H78.3412C77.6329 39.0739 77.2787 38.7068 77.2787 38.0132V1.06072C77.2787 0.352356 77.6329 8.14348e-06 78.3412 8.14348e-06H86.062C86.7703 8.14348e-06 87.1245 0.367037 87.1245 1.06072V13.5801C87.1245 14.2848 87.4787 14.6371 88.187 14.6371H99.0988C99.2342 14.6419 99.369 14.6173 99.4947 14.5648C99.6204 14.5124 99.734 14.4332 99.8284 14.3325C100.008 14.1334 100.108 13.871 100.108 13.5984V1.06072C100.107 0.919013 100.134 0.778574 100.189 0.64881C100.244 0.519046 100.325 0.402955 100.427 0.308312C100.621 0.109803 100.884 -0.00101766 101.156 8.14348e-06H108.92Z" fill="#F8B92A"/>
</g>
<defs>
<clipPath id="clip0">
<rect width="110" height="48" fill="white"/>
</clipPath>
</defs>
</svg>
